<svg xmlns="http://www.w3.org/2000/svg" viewBox="0 0 1301.06 953.67"><defs><style>.cls-1{stroke:#000;stroke-miterlimit:10;}.cls-2{fill:#fff;}.cls-3{fill:#1a171b;}</style></defs><title>sudannews</title><g id="Layer_2" data-name="Layer 2"><path class="cls-1" d="M249.59,391.73c-48.92,70.11-53.52,156.63-12.74,216.68,31,45.66,78.51,61.73,97.19,66.92a644.22,644.22,0,0,0,89.72,24.51c53.32,10.5,93,11.26,115.8,12.13,96.29,3.69,235.9,9,347.33,84.44A375.94,375.94,0,0,1,941.06,841c12.91,20.3,53.86,90.21,43,184.82-12.74,111.12-87.64,175-103.56,188-43.77,28.91-200.49,124.66-395.12,87.63-69.31-13.19-124.54-39.63-164.1-63.73a484,484,0,0,0,52.58,19.12c117.83,35.24,226.2,18.32,297.93-1.6,62.09-17,110.29-63.68,122.68-121.08C811.26,1056.47,760.27,969,670.21,939.8c-36-6.21-87.75-16.46-149.77-33.45,0,0-17.59-4.82-33.45-9.56C355.33,857.47,225,818.53,181,720a176.92,176.92,0,0,1-14.23-54.21c-5.08-32.85-11.12-102.87,21.59-179.91A324.56,324.56,0,0,1,249.59,391.73Z" transform="translate(-162.22 -391.39)"/><circle class="cls-1" cx="228.29" cy="728.38" r="136.21"/><path class="cls-1" d="M1100.58,391.73" transform="translate(-162.22 -391.39)"/><text x="-162.22" y="-391.39"></text></g><g id="Layer_4" data-name="Layer 4"><path class="cls-2" d="M529.72,616.73" transform="translate(-162.22 -391.39)"/><path d="M1463.28,1211.87c0,52.75-7.34,60.3-52.66,84.14,0,0-35.36,17.61-84.21,44l-10.42,5.07.6-698.31A103.83,103.83,0,0,0,1311,608.2a101,101,0,0,0-9.84-20.42,112.43,112.43,0,0,0-22.2-25.62,110.52,110.52,0,0,0-15.56-11,57.15,57.15,0,0,0-30.95-6.46c-33.51,2.89-50.39,36.77-51.58,39.26V943.18c0,62.74-9.79,108-58.7,139.34l-122.27,79.13A387.6,387.6,0,0,0,1034,1017.19V650.49c0-54-7.26-75.34-62.36-65.29-20.77,3.73-52.57,8.77-72.14,11.28-80.74,11.33-115-47.72-59.95-121.8q5.29-7.51,11-15.09a539.09,539.09,0,0,1,61.07-67.86,191.54,191.54,0,0,0-45.13,70.69c-5.79,16.17-16.85,47.06-5.36,57.52,8.4,7.64,24.3.26,70.19-18.91,49.38-20.63,74.4-30,84.33-33.94,116.14-46.41,159,30.2,165.11,75.41a117.86,117.86,0,0,1,9.62-14.54c7.5-9.68,17.33-19.2,34.62-30.17,32.63-20.72,73.93-35.26,84-38.71a100.88,100.88,0,0,1,20.36-5.24c44.93-6.63,100.14,17,122.41,63.34,4.24,8.82,9.84,23.8,10.34,44.73Z" transform="translate(-162.22 -391.39)"/><path class="cls-3" d="M681.72,1109.73" transform="translate(-162.22 -391.39)"/><path class="cls-3" d="M413.39,785.16" transform="translate(-162.22 -391.39)"/><path class="cls-3" d="M668.22,1014.73" transform="translate(-162.22 -391.39)"/><path class="cls-3" d="M647.22,994.23" transform="translate(-162.22 -391.39)"/><path class="cls-3" d="M407.41,770.42" transform="translate(-162.22 -391.39)"/><path class="cls-3" d="M407.41,803.88" transform="translate(-162.22 -391.39)"/><path class="cls-3" d="M687.22,1038.73" transform="translate(-162.22 -391.39)"/><path class="cls-3" d="M1256.33,1559" transform="translate(-162.22 -391.39)"/><path class="cls-3" d="M425,1435.67" transform="translate(-162.22 -391.39)"/><path class="cls-3" d="M1056.72,727.39" transform="translate(-162.22 -391.39)"/><path class="cls-3" d="M1006.05,706.73" transform="translate(-162.22 -391.39)"/><path class="cls-3" d="M788.72,932.73" transform="translate(-162.22 -391.39)"/></g></svg>